# xmcd CD database file
#
# Track frame offsets:
#	150
#	13888
#	28105
#	39675
#	52183
#	67580
#	82213
#	94200
#	108263
#	120980
#	136563
#	150963
#	164225
#	178025
#	190763
#	201088
#	215260
#	227888
#
# Disc length: 3226 seconds
#
# Revision: 0
# Processed by: cddbd v1.5.2PL0 Copyright (c) Steve Scherf et al.
# Submitted via: CDex 1.70beta2
#
DISCID=f20c9812
DTITLE=Jimmie Lunceford - Here goes
DYEAR=1989
DGENRE=Jazz
TTITLE0=Flaming Reed and Screaming Brass
TTITLE1=While Love Lasts
TTITLE2=White Heat
TTITLE3=Jazznocracy
TTITLE4=Chillun Get Up
TTITLE5=Leaving Me
TTITLE6=Swinging Uptown
TTITLE7=Breakfast Ball
TTITLE8=Here Goes
TTITLE9=Remember When
TTITLE10=Sophisticated Lady
TTITLE11=Moon Indigo
TTITLE12=Rose Room
TTITLE13=Black And Tan Fantasy
TTITLE14=Startosphere
TTITLE15=Nana
TTITLE16=Miss Otis Regrets
TTITLE17=Unsophisticated Sue
EXTD=YEAR: 1989
EXTT0=
EXTT1=
EXTT2=
EXTT3=
EXTT4=
EXTT5=
EXTT6=
EXTT7=
EXTT8=
EXTT9=
EXTT10=
EXTT11=
EXTT12=
EXTT13=
EXTT14=
EXTT15=
EXTT16=
EXTT17=
PLAYORDER=
